<?xml version="1.0" encoding="UTF-8"?>
<svg xmlns="http://www.w3.org/2000/svg" viewBox="0 0 800 800" width="800" height="800" role="img" aria-label="Detal partytury orkiestrowej">
  
  <defs>
    <linearGradient id="sc-bg" x1="0" y1="0" x2="0" y2="1">
      <stop offset="0%" stop-color="#0b1528"/>
      <stop offset="55%" stop-color="#070d1a"/>
      <stop offset="100%" stop-color="#050810"/>
    </linearGradient>
    <radialGradient id="sc-spot" cx="50%" cy="8%" r="70%">
      <stop offset="0%" stop-color="#bae6fd" stop-opacity="0.22"/>
      <stop offset="45%" stop-color="#1c3464" stop-opacity="0.12"/>
      <stop offset="100%" stop-color="#070d1a" stop-opacity="0"/>
    </radialGradient>
    <linearGradient id="sc-haze" x1="0" y1="1" x2="0" y2="0">
      <stop offset="0%" stop-color="#070d1a" stop-opacity="0.9"/>
      <stop offset="100%" stop-color="#070d1a" stop-opacity="0"/>
    </linearGradient>
    <filter id="sc-soft" x="-20%" y="-20%" width="140%" height="140%">
      <feGaussianBlur stdDeviation="1.2"/>
    </filter>
  </defs>
  <rect width="800" height="800" fill="url(#sc-bg)"/>
  <rect width="800" height="800" fill="url(#sc-spot)"/>
  <g stroke="rgba(186,230,253,0.28)" stroke-width="1.2" fill="none">
    <line x1="80" y1="160" x2="720" y2="160"/><line x1="80" y1="172" x2="720" y2="172"/><line x1="80" y1="184" x2="720" y2="184"/><line x1="80" y1="196" x2="720" y2="196"/><line x1="80" y1="208" x2="720" y2="208"/><line x1="80" y1="270" x2="720" y2="270"/><line x1="80" y1="282" x2="720" y2="282"/><line x1="80" y1="294" x2="720" y2="294"/><line x1="80" y1="306" x2="720" y2="306"/><line x1="80" y1="318" x2="720" y2="318"/><line x1="80" y1="380" x2="720" y2="380"/><line x1="80" y1="392" x2="720" y2="392"/><line x1="80" y1="404" x2="720" y2="404"/><line x1="80" y1="416" x2="720" y2="416"/><line x1="80" y1="428" x2="720" y2="428"/><line x1="80" y1="490" x2="720" y2="490"/><line x1="80" y1="502" x2="720" y2="502"/><line x1="80" y1="514" x2="720" y2="514"/><line x1="80" y1="526" x2="720" y2="526"/><line x1="80" y1="538" x2="720" y2="538"/><line x1="80" y1="600" x2="720" y2="600"/><line x1="80" y1="612" x2="720" y2="612"/><line x1="80" y1="624" x2="720" y2="624"/><line x1="80" y1="636" x2="720" y2="636"/><line x1="80" y1="648" x2="720" y2="648"/>
  </g>
  <!-- treble clef suggestion -->
  <path d="M130 210 C150 150 210 160 200 210 C186 250 120 250 130 300 C150 340 210 320 190 280" fill="none" stroke="#7dd3fc" stroke-width="3" stroke-linecap="square"/>
  <!-- note heads -->
  <g fill="#e0f2fe" opacity="0.8">
    <ellipse cx="260" cy="232" rx="9" ry="7" transform="rotate(-18 260 232)"/>
    <rect x="268" y="168" width="2" height="64" fill="#7dd3fc"/>
    <ellipse cx="330" cy="256" rx="9" ry="7" transform="rotate(-18 330 256)"/>
    <rect x="338" y="192" width="2" height="64" fill="#7dd3fc"/>
    <ellipse cx="400" cy="220" rx="9" ry="7" transform="rotate(-18 400 220)"/>
    <rect x="408" y="156" width="2" height="64" fill="#7dd3fc"/>
    <ellipse cx="470" cy="268" rx="9" ry="7" transform="rotate(-18 470 268)"/>
    <rect x="478" y="204" width="2" height="64" fill="#7dd3fc"/>
    <ellipse cx="540" cy="244" rx="9" ry="7" transform="rotate(-18 540 244)"/>
    <rect x="548" y="180" width="2" height="64" fill="#7dd3fc"/>
  </g>
  <text x="400" y="720" fill="rgba(125,211,252,0.7)" font-family="Georgia, serif" font-size="28" font-style="italic" text-anchor="middle">Partytura · Arr.</text>
  <rect x="22" y="22" width="756" height="756" fill="none" stroke="rgba(255,255,255,0.12)" stroke-width="1"/>
  
  <text x="400" y="760" fill="#7dd3fc" font-family="Georgia, 'Times New Roman', serif" font-size="11" letter-spacing="3.2" text-anchor="middle">WARSZTAT ARANŻACYJNY</text>
  <text x="400" y="778" fill="rgba(226,232,240,0.55)" font-family="system-ui, sans-serif" font-size="10" letter-spacing="1.6" text-anchor="middle">PARTYTURA ORKIESTROWA</text>
</svg>