<?xml version="1.0" encoding="UTF-8"?>
<svg xmlns="http://www.w3.org/2000/svg" viewBox="0 0 1200 800" width="1200" height="800" role="img" aria-label="Spektakl operetkowy">
  
  <defs>
    <linearGradient id="st-bg" x1="0" y1="0" x2="0" y2="1">
      <stop offset="0%" stop-color="#0b1528"/>
      <stop offset="55%" stop-color="#070d1a"/>
      <stop offset="100%" stop-color="#050810"/>
    </linearGradient>
    <radialGradient id="st-spot" cx="50%" cy="8%" r="70%">
      <stop offset="0%" stop-color="#7dd3fc" stop-opacity="0.22"/>
      <stop offset="45%" stop-color="#1c3464" stop-opacity="0.12"/>
      <stop offset="100%" stop-color="#070d1a" stop-opacity="0"/>
    </radialGradient>
    <linearGradient id="st-haze" x1="0" y1="1" x2="0" y2="0">
      <stop offset="0%" stop-color="#070d1a" stop-opacity="0.9"/>
      <stop offset="100%" stop-color="#070d1a" stop-opacity="0"/>
    </linearGradient>
    <filter id="st-soft" x="-20%" y="-20%" width="140%" height="140%">
      <feGaussianBlur stdDeviation="1.2"/>
    </filter>
  </defs>
  <rect width="1200" height="800" fill="url(#st-bg)"/>
  <rect width="1200" height="800" fill="url(#st-spot)"/>
  <!-- curtains -->
  <path d="M0 0 C80 180 40 420 0 800 L220 800 C180 420 260 160 120 0 Z" fill="#0f1d38" stroke="#38bdf8" stroke-opacity="0.15"/>
  <path d="M1200 0 C1120 180 1160 420 1200 800 L980 800 C1020 420 940 160 1080 0 Z" fill="#0f1d38" stroke="#38bdf8" stroke-opacity="0.15"/>
  <path d="M80 0 Q600 90 1120 0" fill="none" stroke="#7dd3fc" stroke-opacity="0.25"/>
  <!-- footlights -->
  <ellipse cx="180" cy="690" rx="16" ry="6" fill="#38bdf8" opacity="0.15"/><ellipse cx="244" cy="690" rx="16" ry="6" fill="#38bdf8" opacity="0.22999999999999998"/><ellipse cx="308" cy="690" rx="16" ry="6" fill="#38bdf8" opacity="0.31"/><ellipse cx="372" cy="690" rx="16" ry="6" fill="#38bdf8" opacity="0.15"/><ellipse cx="436" cy="690" rx="16" ry="6" fill="#38bdf8" opacity="0.22999999999999998"/><ellipse cx="500" cy="690" rx="16" ry="6" fill="#38bdf8" opacity="0.31"/><ellipse cx="564" cy="690" rx="16" ry="6" fill="#38bdf8" opacity="0.15"/><ellipse cx="628" cy="690" rx="16" ry="6" fill="#38bdf8" opacity="0.22999999999999998"/><ellipse cx="692" cy="690" rx="16" ry="6" fill="#38bdf8" opacity="0.31"/><ellipse cx="756" cy="690" rx="16" ry="6" fill="#38bdf8" opacity="0.15"/><ellipse cx="820" cy="690" rx="16" ry="6" fill="#38bdf8" opacity="0.22999999999999998"/><ellipse cx="884" cy="690" rx="16" ry="6" fill="#38bdf8" opacity="0.31"/><ellipse cx="948" cy="690" rx="16" ry="6" fill="#38bdf8" opacity="0.15"/><ellipse cx="1012" cy="690" rx="16" ry="6" fill="#38bdf8" opacity="0.22999999999999998"/>
  <!-- figures -->
  <g fill="#050810" stroke="#7dd3fc" stroke-opacity="0.35" stroke-width="1">
    <ellipse cx="470" cy="330" rx="22" ry="26"/>
    <path d="M448 356 L430 620 L510 620 L492 356 Z"/>
    <ellipse cx="640" cy="310" rx="24" ry="28"/>
    <path d="M616 338 C600 420 590 560 600 640 L680 640 C690 540 700 420 664 338 Z"/>
    <ellipse cx="800" cy="350" rx="20" ry="24"/>
    <path d="M782 372 L770 610 L830 610 L818 372 Z"/>
  </g>
  <rect x="0" y="700" width="1200" height="100" fill="url(#st-haze)"/>
  <rect x="18" y="18" width="1164" height="764" fill="none" stroke="rgba(255,255,255,0.12)" stroke-width="1"/>
  
  <text x="600" y="740" fill="#7dd3fc" font-family="Georgia, 'Times New Roman', serif" font-size="11" letter-spacing="3.2" text-anchor="middle">SCENA TEATRALNA</text>
  <text x="600" y="758" fill="rgba(226,232,240,0.55)" font-family="system-ui, sans-serif" font-size="10" letter-spacing="1.6" text-anchor="middle">OPERETKA · MUSICAL · ŚWIATŁO RAMPY</text>
</svg>