<?xml version="1.0" encoding="UTF-8"?>
<svg xmlns="http://www.w3.org/2000/svg" viewBox="0 0 1600 900" width="1600" height="900" role="img" aria-label="CHÓR IM. PROF. W. WAWRZYCZKA">
  
  <defs>
    <linearGradient id="ww-bg" x1="0" y1="0" x2="0" y2="1">
      <stop offset="0%" stop-color="#0b1528"/>
      <stop offset="55%" stop-color="#070d1a"/>
      <stop offset="100%" stop-color="#050810"/>
    </linearGradient>
    <radialGradient id="ww-spot" cx="50%" cy="8%" r="70%">
      <stop offset="0%" stop-color="#38bdf8" stop-opacity="0.22"/>
      <stop offset="45%" stop-color="#1c3464" stop-opacity="0.12"/>
      <stop offset="100%" stop-color="#070d1a" stop-opacity="0"/>
    </radialGradient>
    <linearGradient id="ww-haze" x1="0" y1="1" x2="0" y2="0">
      <stop offset="0%" stop-color="#070d1a" stop-opacity="0.9"/>
      <stop offset="100%" stop-color="#070d1a" stop-opacity="0"/>
    </linearGradient>
    <filter id="ww-soft" x="-20%" y="-20%" width="140%" height="140%">
      <feGaussianBlur stdDeviation="1.2"/>
    </filter>
  </defs>
  <rect width="1600" height="900" fill="url(#ww-bg)"/>
  <rect width="1600" height="900" fill="url(#ww-spot)"/>
  <path d="M200 620 Q800 180 1400 620" fill="none" stroke="rgba(125,211,252,0.2)" stroke-width="2"/>
  <ellipse cx="280" cy="300" rx="12" ry="18" fill="#0f1d38" stroke="#7dd3fc" stroke-opacity="0.3"/><ellipse cx="350" cy="300" rx="12" ry="18" fill="#0f1d38" stroke="#7dd3fc" stroke-opacity="0.3"/><ellipse cx="420" cy="300" rx="12" ry="18" fill="#0f1d38" stroke="#7dd3fc" stroke-opacity="0.3"/><ellipse cx="490" cy="300" rx="12" ry="18" fill="#0f1d38" stroke="#7dd3fc" stroke-opacity="0.3"/><ellipse cx="560" cy="300" rx="12" ry="18" fill="#0f1d38" stroke="#7dd3fc" stroke-opacity="0.3"/><ellipse cx="630" cy="300" rx="12" ry="18" fill="#0f1d38" stroke="#7dd3fc" stroke-opacity="0.3"/><ellipse cx="700" cy="300" rx="12" ry="18" fill="#0f1d38" stroke="#7dd3fc" stroke-opacity="0.3"/><ellipse cx="770" cy="300" rx="12" ry="18" fill="#0f1d38" stroke="#7dd3fc" stroke-opacity="0.3"/><ellipse cx="840" cy="300" rx="12" ry="18" fill="#0f1d38" stroke="#7dd3fc" stroke-opacity="0.3"/><ellipse cx="910" cy="300" rx="12" ry="18" fill="#0f1d38" stroke="#7dd3fc" stroke-opacity="0.3"/><ellipse cx="980" cy="300" rx="12" ry="18" fill="#0f1d38" stroke="#7dd3fc" stroke-opacity="0.3"/><ellipse cx="1050" cy="300" rx="12" ry="18" fill="#0f1d38" stroke="#7dd3fc" stroke-opacity="0.3"/><ellipse cx="1120" cy="300" rx="12" ry="18" fill="#0f1d38" stroke="#7dd3fc" stroke-opacity="0.3"/><ellipse cx="1190" cy="300" rx="12" ry="18" fill="#0f1d38" stroke="#7dd3fc" stroke-opacity="0.3"/><ellipse cx="1260" cy="300" rx="12" ry="18" fill="#0f1d38" stroke="#7dd3fc" stroke-opacity="0.3"/><ellipse cx="1330" cy="300" rx="12" ry="18" fill="#0f1d38" stroke="#7dd3fc" stroke-opacity="0.3"/><ellipse cx="300" cy="380" rx="12" ry="18" fill="#0f1d38" stroke="#7dd3fc" stroke-opacity="0.3"/><ellipse cx="370" cy="380" rx="12" ry="18" fill="#0f1d38" stroke="#7dd3fc" stroke-opacity="0.3"/><ellipse cx="440" cy="380" rx="12" ry="18" fill="#0f1d38" stroke="#7dd3fc" stroke-opacity="0.3"/><ellipse cx="510" cy="380" rx="12" ry="18" fill="#0f1d38" stroke="#7dd3fc" stroke-opacity="0.3"/><ellipse cx="580" cy="380" rx="12" ry="18" fill="#0f1d38" stroke="#7dd3fc" stroke-opacity="0.3"/><ellipse cx="650" cy="380" rx="12" ry="18" fill="#0f1d38" stroke="#7dd3fc" stroke-opacity="0.3"/><ellipse cx="720" cy="380" rx="12" ry="18" fill="#0f1d38" stroke="#7dd3fc" stroke-opacity="0.3"/><ellipse cx="790" cy="380" rx="12" ry="18" fill="#0f1d38" stroke="#7dd3fc" stroke-opacity="0.3"/><ellipse cx="860" cy="380" rx="12" ry="18" fill="#0f1d38" stroke="#7dd3fc" stroke-opacity="0.3"/><ellipse cx="930" cy="380" rx="12" ry="18" fill="#0f1d38" stroke="#7dd3fc" stroke-opacity="0.3"/><ellipse cx="1000" cy="380" rx="12" ry="18" fill="#0f1d38" stroke="#7dd3fc" stroke-opacity="0.3"/><ellipse cx="1070" cy="380" rx="12" ry="18" fill="#0f1d38" stroke="#7dd3fc" stroke-opacity="0.3"/><ellipse cx="1140" cy="380" rx="12" ry="18" fill="#0f1d38" stroke="#7dd3fc" stroke-opacity="0.3"/><ellipse cx="1210" cy="380" rx="12" ry="18" fill="#0f1d38" stroke="#7dd3fc" stroke-opacity="0.3"/><ellipse cx="1280" cy="380" rx="12" ry="18" fill="#0f1d38" stroke="#7dd3fc" stroke-opacity="0.3"/><ellipse cx="1350" cy="380" rx="12" ry="18" fill="#0f1d38" stroke="#7dd3fc" stroke-opacity="0.3"/><ellipse cx="280" cy="460" rx="12" ry="18" fill="#0f1d38" stroke="#7dd3fc" stroke-opacity="0.3"/><ellipse cx="350" cy="460" rx="12" ry="18" fill="#0f1d38" stroke="#7dd3fc" stroke-opacity="0.3"/><ellipse cx="420" cy="460" rx="12" ry="18" fill="#0f1d38" stroke="#7dd3fc" stroke-opacity="0.3"/><ellipse cx="490" cy="460" rx="12" ry="18" fill="#0f1d38" stroke="#7dd3fc" stroke-opacity="0.3"/><ellipse cx="560" cy="460" rx="12" ry="18" fill="#0f1d38" stroke="#7dd3fc" stroke-opacity="0.3"/><ellipse cx="630" cy="460" rx="12" ry="18" fill="#0f1d38" stroke="#7dd3fc" stroke-opacity="0.3"/><ellipse cx="700" cy="460" rx="12" ry="18" fill="#0f1d38" stroke="#7dd3fc" stroke-opacity="0.3"/><ellipse cx="770" cy="460" rx="12" ry="18" fill="#0f1d38" stroke="#7dd3fc" stroke-opacity="0.3"/><ellipse cx="840" cy="460" rx="12" ry="18" fill="#0f1d38" stroke="#7dd3fc" stroke-opacity="0.3"/><ellipse cx="910" cy="460" rx="12" ry="18" fill="#0f1d38" stroke="#7dd3fc" stroke-opacity="0.3"/><ellipse cx="980" cy="460" rx="12" ry="18" fill="#0f1d38" stroke="#7dd3fc" stroke-opacity="0.3"/><ellipse cx="1050" cy="460" rx="12" ry="18" fill="#0f1d38" stroke="#7dd3fc" stroke-opacity="0.3"/><ellipse cx="1120" cy="460" rx="12" ry="18" fill="#0f1d38" stroke="#7dd3fc" stroke-opacity="0.3"/><ellipse cx="1190" cy="460" rx="12" ry="18" fill="#0f1d38" stroke="#7dd3fc" stroke-opacity="0.3"/><ellipse cx="1260" cy="460" rx="12" ry="18" fill="#0f1d38" stroke="#7dd3fc" stroke-opacity="0.3"/><ellipse cx="1330" cy="460" rx="12" ry="18" fill="#0f1d38" stroke="#7dd3fc" stroke-opacity="0.3"/>
  <rect x="0" y="720" width="1600" height="180" fill="url(#ww-haze)"/>
  <rect x="18" y="18" width="1564" height="864" fill="none" stroke="rgba(255,255,255,0.12)" stroke-width="1"/>
  
  <text x="800" y="800" fill="#7dd3fc" font-family="Georgia, 'Times New Roman', serif" font-size="11" letter-spacing="3.2" text-anchor="middle">CHÓR IM. PROF. W. WAWRZYCZKA</text>
  <text x="800" y="818" fill="rgba(226,232,240,0.55)" font-family="system-ui, sans-serif" font-size="10" letter-spacing="1.6" text-anchor="middle">TENOR · DYRYGENTURA · TOURNÉE</text>
</svg>